<svg xmlns="http://www.w3.org/2000/svg" viewBox="0 0 512 512" role="img" aria-label="Honey">
  <rect width="512" height="512" rx="96" fill="#1b1b1f"/>
  <g fill="#ffb300">
    <path d="M256 88c-44 0-80 36-80 80v48c0 8 7 15 15 15h10v176c0 26 21 48 48 48h14c26 0 48-22 48-48V231h10c8 0 15-7 15-15v-48c0-44-36-80-80-80zm0 48c18 0 32 14 32 32v32h-64v-32c0-18 14-32 32-32z"/>
    <ellipse cx="256" cy="200" rx="88" ry="24" opacity=".35"/>
  </g>
  <path fill="#ffc947" d="M168 320h176v8a72 72 0 01-72 72h-32a72 72 0 01-72-72v-8z" opacity=".9"/>
</svg>
